<?xml version="1.0" encoding="UTF-8"?>
<!-- Generator: Adobe Illustrator 16.0.0, SVG Export Plug-In . SVG Version: 6.00 Build 0)  -->
<!DOCTYPE svg PUBLIC "-//W3C//DTD SVG 1.1//EN" "http://www.w3.org/Graphics/SVG/1.1/DTD/svg11.dtd">
<svg version="1.1" id="Layer_1" xmlns="http://www.w3.org/2000/svg" xmlns:xlink="http://www.w3.org/1999/xlink" x="0px" y="0px" width="50px" height="50px" viewBox="-0.5 -0.5 50 50" enable-background="new -0.5 -0.5 50 50" xml:space="preserve">
<circle fill="#DE5833" cx="24.5" cy="24.5" r="19"/>
<g>
	<g>
		<g>
			<g>
				<g>
					<g>
						<g>
							<g>
								<g>
									<g>
										<g>
											<g>
												<g>
													<defs>
														<path id="SVGID_1_" d="M40.449,24.499c0,8.795-7.151,15.95-15.95,15.95c-8.794,0-15.948-7.153-15.948-15.95                c0-8.793,7.154-15.948,15.948-15.948C33.296,8.551,40.449,15.706,40.449,24.499z"/>
													</defs>
													<clipPath id="SVGID_2_">
														<use xlink:href="#SVGID_1_" overflow="visible"/>
													</clipPath>
													<g clip-path="url(#SVGID_2_)">
														<path fill="#FFFFFF" d="M31.439,47.271c-0.541-2.496-3.697-8.153-4.893-10.547c-1.197-2.396-2.394-5.764-1.849-7.938                c0.098-0.397-1.038-3.417-0.709-3.624c2.535-1.657,3.205,0.182,4.221-0.561c0.521-0.385,1.235,0.314,1.418-0.32                c0.647-2.282-0.91-6.262-2.647-8.001c-0.568-0.566-1.439-0.923-2.421-1.112c-0.379-0.516-0.988-1.013-1.85-1.469                c-0.964-0.511-3.055-1.189-4.138-1.369c-0.75-0.125-0.922,0.086-1.241,0.14c0.297,0.027,1.718,0.727,1.994,0.768                c-0.276,0.186-1.088-0.009-1.606,0.223c-0.262,0.118-0.456,0.567-0.454,0.777c1.481-0.149,3.792-0.003,5.157,0.603                c-1.088,0.124-2.74,0.261-3.45,0.634c-2.065,1.09-2.977,3.63-2.433,6.676c0.546,3.044,2.938,14.136,3.7,17.832                c0.761,3.699-1.633,6.094-3.152,6.742l1.631,0.112l-0.543,1.196c1.955,0.215,4.132-0.434,4.132-0.434                c-0.433,1.193-3.371,1.633-3.371,1.633s1.414,0.432,3.698-0.438c2.282-0.87,3.695-1.412,3.695-1.412l1.088,2.825                l2.066-2.062l0.869,2.172C30.354,50.318,31.984,49.773,31.439,47.271z"/>
														<path fill="#FFFFFF" d="M31.916,46.794c-0.544-2.5-3.697-8.155-4.895-10.549c-1.199-2.394-2.396-5.763-1.849-7.937                c0.099-0.396,0.103-2.011,0.431-2.229c2.533-1.66,2.357-0.056,3.373-0.8c0.524-0.382,0.942-0.843,1.129-1.479                c0.65-2.283-0.912-6.262-2.647-8.003c-0.565-0.567-1.438-0.922-2.419-1.108c-0.38-0.52-0.99-1.016-1.852-1.474                c-1.627-0.863-3.642-1.209-5.508-0.872c0.298,0.03,0.981,0.646,1.257,0.686c-0.417,0.283-1.524,0.246-1.517,0.874                c1.483-0.146,3.106,0.087,4.474,0.693c-1.086,0.123-2.097,0.393-2.808,0.769c-2.066,1.083-2.609,3.26-2.066,6.307                c0.544,3.045,2.938,14.137,3.696,17.832c0.762,3.695-1.63,6.088-3.152,6.74l1.631,0.109l-0.544,1.197                c1.957,0.217,4.133-0.436,4.133-0.436c-0.434,1.195-3.373,1.635-3.373,1.635s1.413,0.436,3.696-0.438                c2.287-0.873,3.699-1.41,3.699-1.41l1.086,2.824l2.068-2.062l0.87,2.174C30.829,49.84,32.462,49.296,31.916,46.794z"/>
														<circle fill="#2C4E8D" cx="20.558" cy="21.828" r="1.142"/>
														<circle fill="#FFFFFF" cx="21.063" cy="21.447" r="0.296"/>
														<circle fill="#2C4E8D" cx="28.191" cy="21.151" r="0.98"/>
														<path fill="#FFFFFF" d="M28.375,20.823c0-0.139,0.115-0.255,0.251-0.255c0.144,0,0.256,0.115,0.256,0.255                c0,0.141-0.112,0.253-0.256,0.253C28.49,21.079,28.375,20.965,28.375,20.823z"/>
														
															<linearGradient id="SVGID_3_" gradientUnits="userSpaceOnUse" x1="2138.2988" y1="-3251.8994" x2="2140.8848" y2="-3251.8994" gradientTransform="matrix(1 0 0 -1 -2120 -3233)">
															<stop offset="0.0056" style="stop-color:#5D7CFE"/>
															<stop offset="0.691" style="stop-color:#192DC5"/>
														</linearGradient>
														<path fill="url(#SVGID_3_)" d="M20.885,18.52c0,0-0.862-0.39-1.699,0.135c-0.836,0.526-0.805,1.062-0.805,1.062                s-0.445-0.99,0.74-1.472C20.306,17.758,20.885,18.52,20.885,18.52z"/>
														
															<linearGradient id="SVGID_4_" gradientUnits="userSpaceOnUse" x1="2146.4268" y1="-3251.1113" x2="2148.7822" y2="-3251.1113" gradientTransform="matrix(1 0 0 -1 -2120 -3233)">
															<stop offset="0.0056" style="stop-color:#5D7CFE"/>
															<stop offset="0.691" style="stop-color:#192DC5"/>
														</linearGradient>
														<path fill="url(#SVGID_4_)" d="M28.782,18.439c0,0-0.62-0.353-1.099-0.346c-0.986,0.015-1.257,0.448-1.257,0.448                s0.166-1.04,1.429-0.831C28.538,17.826,28.782,18.439,28.782,18.439z"/>
													</g>
												</g>
											</g>
										</g>
									</g>
								</g>
							</g>
						</g>
					</g>
				</g>
			</g>
			<path fill="#FDD204" d="M24.055,26.189c0.115-0.692,1.899-1.997,3.163-2.077c1.269-0.08,1.662-0.06,2.718-0.313     c1.057-0.252,3.782-0.931,4.537-1.281c0.756-0.348,3.947,0.172,1.7,1.428c-0.976,0.547-3.603,1.547-5.481,2.108     c-1.877,0.562-3.019-0.535-3.637,0.387c-0.492,0.735-0.104,1.738,2.139,1.947c3.023,0.282,5.927-1.361,6.252-0.492     c0.318,0.873-2.603,1.965-4.383,2c-1.775,0.033-5.364-1.176-5.896-1.549C24.623,27.973,23.904,27.102,24.055,26.189z"/>
		</g>
	</g>
	<g>
		<path fill="#65BC46" d="M24.986,35.629c0,0-4.253-2.27-4.323-1.348c-0.071,0.92,0,4.677,0.496,4.962    C21.656,39.525,25.2,37.4,25.2,37.4L24.986,35.629z"/>
		<path fill="#65BC46" d="M26.616,35.486c0,0,2.907-2.198,3.547-2.059c0.64,0.145,0.778,4.676,0.214,4.896    c-0.568,0.21-3.895-1.152-3.895-1.152L26.616,35.486z"/>
		<path fill="#4D913B" d="M23.956,35.869c0,1.486-0.213,2.127,0.426,2.27c0.642,0.143,1.841,0,2.269-0.285    c0.424-0.281,0.068-2.196-0.072-2.555C26.436,34.947,23.956,35.23,23.956,35.869z"/>
		<path fill="#65BC46" d="M24.381,35.46c0,1.485-0.214,2.123,0.425,2.267c0.637,0.144,1.842,0,2.267-0.283    c0.425-0.282,0.069-2.196-0.072-2.553C26.859,34.536,24.381,34.82,24.381,35.46z"/>
	</g>
</g>
<g>
	<path fill="none" stroke="#FFFFFF" stroke-width="1.5" stroke-miterlimit="10" d="M24.501,7.87   c-9.178,0-16.631,7.452-16.631,16.631c0,9.177,7.453,16.629,16.631,16.629c9.178,0,16.627-7.452,16.627-16.629   C41.129,15.323,33.68,7.87,24.501,7.87L24.501,7.87"/>
</g>
</svg>