<svg xmlns="http://www.w3.org/2000/svg" width="96" height="96">
  <g transform="translate(0 -956.4)">
    <rect width="44.6" height="44.6" y="956.4" fill="#37adff" fill-rule="evenodd" rx="6.8" ry="6.8"/>
    <rect width="44.6" height="44.6" y="1007.8" fill="#51cd00" fill-rule="evenodd" rx="6.9" ry="6.9"/>
    <rect width="44.6" height="44.6" x="51.4" y="1007.8" fill="#af51f5" fill-rule="evenodd" rx="6.8" ry="6.8"/>
    <rect width="44.6" height="44.6" x="51.4" y="956.4" fill="#616161" fill-rule="evenodd" rx="6.8" ry="6.8"/>
    <path fill="#fff" d="M57 1015.8c-.1 9.3 2.7 19 9.1 25.8 2.3 2.3 4.8 4.4 7.7 5.9a32.9 32.9 0 0 0 13.2-14.9 39 39 0 0 0 3.4-16.8c-16.6-4.1-16.6-4.2-33.3 0zM5.7 1015.8c-.3 9.3 2.6 19 9 25.8 2.2 2.3 4.7 4.4 7.6 5.9a32.9 32.9 0 0 0 13.3-14.9 39 39 0 0 0 3.3-16.8c-16.6-4.1-16.6-4.2-33.2 0zM5.7 964.4c-.3 9.3 2.6 19 9 25.8 2.2 2.3 4.7 4.4 7.6 5.8a32.9 32.9 0 0 0 13.3-14.8 39 39 0 0 0 3.3-16.8c-16.6-4.1-16.6-4.2-33.2 0z"/>
  </g>
</svg>
